<svg width="33" height="25" viewBox="0 0 33 25" fill="none" xmlns="http://www.w3.org/2000/svg">
<path d="M20.3491 8.26044C22.8367 10.748 22.8367 14.7817 20.3491 17.2705" stroke="#3E3D40" stroke-width="1.57413" stroke-linecap="round" stroke-linejoin="round"/>
<path d="M23.5536 5.05591C27.8116 9.31396 27.8116 16.2158 23.5536 20.4739" stroke="#3E3D40" stroke-width="1.57413" stroke-linecap="round" stroke-linejoin="round"/>
<path d="M26.757 1.8526C32.7843 7.8799 32.7843 17.6511 26.757 23.6784" stroke="#3E3D40" stroke-width="1.57413" stroke-linecap="round" stroke-linejoin="round"/>
<path d="M14.7451 2.0038L7.309 8.5213H3.08245C2.34274 8.5213 1.73914 9.12617 1.73914 9.86462V15.6638C1.73914 16.4035 2.344 17.0072 3.08245 17.0072H7.309L14.7451 23.5247C15.3727 24.0753 16.3569 23.6293 16.3569 22.7938V2.73469C16.3569 1.89921 15.3727 1.45311 14.7451 2.0038Z" stroke="#3E3D40" stroke-width="1.57413" stroke-linecap="round" stroke-linejoin="round"/>
</svg>
