<svg width="191" height="79" viewBox="0 0 191 79" fill="none" xmlns="http://www.w3.org/2000/svg">
<rect x="0.3" y="30.7203" width="189.86" height="47.015" rx="23.5075" fill="#F2F5EA" stroke="#C9CAD9" stroke-width="0.6"/>
<rect x="0.3" y="30.7203" width="94.63" height="47.015" rx="23.5075" fill="#0BAA81" stroke="#0BAA81" stroke-width="0.6"/>
<path d="M62.466 1.93986V13.0919H61.01V1.93986H62.466ZM69.2195 4.16386C70.2861 4.16386 71.1501 4.48919 71.8115 5.13986C72.4728 5.77986 72.8035 6.70786 72.8035 7.92386V13.0919H71.3635V8.13186C71.3635 7.25719 71.1448 6.59052 70.7075 6.13186C70.2701 5.66252 69.6728 5.42786 68.9155 5.42786C68.1475 5.42786 67.5341 5.66786 67.0755 6.14786C66.6275 6.62786 66.4035 7.32652 66.4035 8.24386V13.0919H64.9475V4.32386H66.4035V5.57186C66.6915 5.12386 67.0808 4.77719 67.5715 4.53186C68.0728 4.28652 68.6221 4.16386 69.2195 4.16386ZM76.9578 5.52386V10.6919C76.9578 11.1185 77.0485 11.4225 77.2298 11.6039C77.4112 11.7745 77.7258 11.8599 78.1738 11.8599H79.2458V13.0919H77.9338C77.1232 13.0919 76.5152 12.9052 76.1098 12.5319C75.7045 12.1585 75.5018 11.5452 75.5018 10.6919V5.52386H74.3658V4.32386H75.5018V2.11586H76.9578V4.32386H79.2458V5.52386H76.9578ZM89.01 8.37186C89.01 8.64919 88.994 8.94252 88.962 9.25186H81.954C82.0073 10.1159 82.3006 10.7932 82.834 11.2839C83.378 11.7639 84.034 12.0039 84.802 12.0039C85.4313 12.0039 85.954 11.8599 86.37 11.5719C86.7966 11.2732 87.0953 10.8785 87.266 10.3879H88.834C88.5993 11.2305 88.13 11.9185 87.426 12.4519C86.722 12.9745 85.8473 13.2359 84.802 13.2359C83.97 13.2359 83.2233 13.0492 82.562 12.6759C81.9113 12.3025 81.3993 11.7745 81.026 11.0919C80.6526 10.3985 80.466 9.59852 80.466 8.69186C80.466 7.78519 80.6473 6.99052 81.01 6.30786C81.3726 5.62519 81.8793 5.10252 82.53 4.73986C83.1913 4.36652 83.9486 4.17986 84.802 4.17986C85.634 4.17986 86.37 4.36119 87.01 4.72386C87.65 5.08652 88.1406 5.58786 88.482 6.22786C88.834 6.85719 89.01 7.57186 89.01 8.37186ZM87.506 8.06786C87.506 7.51319 87.3833 7.03852 87.138 6.64386C86.8926 6.23852 86.5566 5.93452 86.13 5.73186C85.714 5.51852 85.25 5.41186 84.738 5.41186C84.002 5.41186 83.3726 5.64652 82.85 6.11586C82.338 6.58519 82.0446 7.23586 81.97 8.06786H87.506ZM92.3878 5.74786C92.6438 5.24652 93.0065 4.85719 93.4758 4.57986C93.9558 4.30252 94.5372 4.16386 95.2198 4.16386V5.66786H94.8358C93.2038 5.66786 92.3878 6.55319 92.3878 8.32386V13.0919H90.9318V4.32386H92.3878V5.74786ZM100.469 5.52386H98.6286V13.0919H97.1726V5.52386H96.0366V4.32386H97.1726V3.69986C97.1726 2.71852 97.4233 2.00386 97.9246 1.55586C98.4366 1.09719 99.2526 0.867857 100.373 0.867857V2.08386C99.7326 2.08386 99.2793 2.21186 99.0126 2.46786C98.7566 2.71319 98.6286 3.12386 98.6286 3.69986V4.32386H100.469V5.52386ZM101.622 8.67586C101.622 7.77986 101.804 6.99586 102.166 6.32386C102.529 5.64119 103.025 5.11319 103.654 4.73986C104.294 4.36652 105.004 4.17986 105.782 4.17986C106.55 4.17986 107.217 4.34519 107.782 4.67586C108.348 5.00652 108.769 5.42252 109.046 5.92386V4.32386H110.518V13.0919H109.046V11.4599C108.758 11.9719 108.326 12.3985 107.75 12.7399C107.185 13.0705 106.524 13.2359 105.766 13.2359C104.988 13.2359 104.284 13.0439 103.654 12.6599C103.025 12.2759 102.529 11.7372 102.166 11.0439C101.804 10.3505 101.622 9.56119 101.622 8.67586ZM109.046 8.69186C109.046 8.03052 108.913 7.45452 108.646 6.96386C108.38 6.47319 108.017 6.09986 107.558 5.84386C107.11 5.57719 106.614 5.44386 106.07 5.44386C105.526 5.44386 105.03 5.57186 104.582 5.82786C104.134 6.08386 103.777 6.45719 103.51 6.94786C103.244 7.43852 103.11 8.01452 103.11 8.67586C103.11 9.34786 103.244 9.93452 103.51 10.4359C103.777 10.9265 104.134 11.3052 104.582 11.5719C105.03 11.8279 105.526 11.9559 106.07 11.9559C106.614 11.9559 107.11 11.8279 107.558 11.5719C108.017 11.3052 108.38 10.9265 108.646 10.4359C108.913 9.93452 109.046 9.35319 109.046 8.69186ZM112.435 8.69186C112.435 7.78519 112.616 6.99586 112.979 6.32386C113.341 5.64119 113.843 5.11319 114.483 4.73986C115.133 4.36652 115.875 4.17986 116.707 4.17986C117.784 4.17986 118.669 4.44119 119.363 4.96386C120.067 5.48652 120.531 6.21186 120.755 7.13986H119.187C119.037 6.60652 118.744 6.18519 118.307 5.87586C117.88 5.56652 117.347 5.41186 116.707 5.41186C115.875 5.41186 115.203 5.69986 114.691 6.27586C114.179 6.84119 113.923 7.64652 113.923 8.69186C113.923 9.74786 114.179 10.5639 114.691 11.1399C115.203 11.7159 115.875 12.0039 116.707 12.0039C117.347 12.0039 117.88 11.8545 118.307 11.5559C118.733 11.2572 119.027 10.8305 119.187 10.2759H120.755C120.52 11.1719 120.051 11.8919 119.347 12.4359C118.643 12.9692 117.763 13.2359 116.707 13.2359C115.875 13.2359 115.133 13.0492 114.483 12.6759C113.843 12.3025 113.341 11.7745 112.979 11.0919C112.616 10.4092 112.435 9.60919 112.435 8.69186ZM130.697 8.37186C130.697 8.64919 130.681 8.94252 130.649 9.25186H123.641C123.695 10.1159 123.988 10.7932 124.521 11.2839C125.065 11.7639 125.721 12.0039 126.489 12.0039C127.119 12.0039 127.641 11.8599 128.057 11.5719C128.484 11.2732 128.783 10.8785 128.953 10.3879H130.521C130.287 11.2305 129.817 11.9185 129.113 12.4519C128.409 12.9745 127.535 13.2359 126.489 13.2359C125.657 13.2359 124.911 13.0492 124.249 12.6759C123.599 12.3025 123.087 11.7745 122.713 11.0919C122.34 10.3985 122.153 9.59852 122.153 8.69186C122.153 7.78519 122.335 6.99052 122.697 6.30786C123.06 5.62519 123.567 5.10252 124.217 4.73986C124.879 4.36652 125.636 4.17986 126.489 4.17986C127.321 4.17986 128.057 4.36119 128.697 4.72386C129.337 5.08652 129.828 5.58786 130.169 6.22786C130.521 6.85719 130.697 7.57186 130.697 8.37186ZM129.193 8.06786C129.193 7.51319 129.071 7.03852 128.825 6.64386C128.58 6.23852 128.244 5.93452 127.817 5.73186C127.401 5.51852 126.937 5.41186 126.425 5.41186C125.689 5.41186 125.06 5.64652 124.537 6.11586C124.025 6.58519 123.732 7.23586 123.657 8.06786H129.193Z" fill="black"/>
<path d="M130.178 56.2288C130.063 56.1317 129.902 56.1121 129.767 56.1784C127.391 57.3495 124.535 56.8769 122.661 55.0029C120.786 53.1279 120.313 50.2715 121.484 47.8952C121.55 47.7602 121.53 47.5989 121.433 47.484C121.336 47.3691 121.18 47.3228 121.036 47.3661C119.867 47.7164 118.789 48.3606 117.919 49.2292C117.209 49.9389 116.66 50.7667 116.286 51.6892C115.924 52.5801 115.741 53.5215 115.741 54.4869C115.741 55.4522 115.924 56.3936 116.285 57.2845C116.66 58.2072 117.209 59.0348 117.919 59.7445C118.628 60.4539 119.456 61.0031 120.378 61.3773C121.269 61.7384 122.21 61.9215 123.175 61.9215C124.14 61.9215 125.082 61.7384 125.973 61.3773C126.895 61.0033 127.723 60.454 128.433 59.7443C129.302 58.874 129.946 57.7956 130.296 56.6256C130.339 56.4816 130.293 56.3259 130.178 56.2288ZM127.898 59.2102C125.294 61.8134 121.057 61.8134 118.453 59.2102C117.191 57.9483 116.496 56.271 116.496 54.4869C116.496 52.7027 117.191 51.0254 118.453 49.7637C119.035 49.1831 119.719 48.7141 120.464 48.3825C120.33 48.7768 120.231 49.1833 120.169 49.5982C120.064 50.3 120.067 51.0112 120.177 51.7122C120.406 53.1687 121.08 54.4914 122.126 55.5373C123.171 56.5825 124.493 57.256 125.95 57.4848C126.65 57.595 127.362 57.5976 128.063 57.4927C128.478 57.4308 128.885 57.3318 129.279 57.197C128.948 57.9426 128.479 58.6284 127.898 59.2102Z" fill="#C9CAD9"/>
<path d="M26.4515 51.5836C24.7018 49.8338 21.8549 49.8338 20.1052 51.5836C18.3554 53.3333 18.3554 56.1802 20.1052 57.9299C20.9799 58.8047 22.1291 59.2422 23.2785 59.2422C24.4278 59.2422 25.5768 58.8047 26.4517 57.9299C28.2015 56.1802 28.2015 53.3333 26.4517 51.5836H26.4515ZM25.8196 57.298C24.4184 58.6992 22.1385 58.6992 20.7373 57.298C19.3361 55.8968 19.3361 53.6169 20.7373 52.2157C22.1385 50.8145 24.4184 50.8145 25.8196 52.2157C27.2208 53.6169 27.2208 55.8968 25.8196 57.298Z" fill="#F2F5EA"/>
<path d="M32.3545 54.3099H30.4844C30.2375 54.3099 30.0375 54.5099 30.0375 54.7568C30.0375 55.0037 30.2375 55.2037 30.4844 55.2037H32.3545C32.6014 55.2037 32.8014 55.0037 32.8014 54.7568C32.8014 54.5099 32.6014 54.3099 32.3545 54.3099Z" fill="#F2F5EA"/>
<path d="M28.3735 50.1085C28.4879 50.1085 28.6023 50.0649 28.6894 49.9775L30.0119 48.655C30.1864 48.4805 30.1864 48.1976 30.0119 48.0231C29.8374 47.8486 29.5546 47.8486 29.3801 48.0231L28.0575 49.3456C27.883 49.5201 27.883 49.803 28.0575 49.9775C28.1449 50.0649 28.2591 50.1085 28.3735 50.1085Z" fill="#F2F5EA"/>
<path d="M23.2784 45.2339C23.0315 45.2339 22.8315 45.4339 22.8315 45.6808V47.5512C22.8315 47.7981 23.0315 47.9981 23.2784 47.9981C23.5253 47.9981 23.7253 47.7981 23.7253 47.5512V45.6808C23.7253 45.4339 23.5253 45.2339 23.2784 45.2339Z" fill="#F2F5EA"/>
<path d="M17.1765 48.0231C17.002 47.8486 16.7191 47.8486 16.5446 48.0231C16.3701 48.1976 16.3701 48.4805 16.5446 48.6552L17.8671 49.9777C17.9545 50.0651 18.0687 50.1087 18.1831 50.1087C18.2975 50.1087 18.4119 50.0651 18.499 49.9777C18.6735 49.8032 18.6735 49.5204 18.499 49.3456L17.1765 48.0231Z" fill="#F2F5EA"/>
<path d="M16.0724 54.3099H14.2023C13.9553 54.3099 13.7554 54.5099 13.7554 54.7568C13.7554 55.0037 13.9553 55.2037 14.2023 55.2037H16.0724C16.3193 55.2037 16.5193 55.0037 16.5193 54.7568C16.5193 54.5099 16.3193 54.3099 16.0724 54.3099Z" fill="#F2F5EA"/>
<path d="M17.8671 59.536L16.5446 60.8585C16.3701 61.033 16.3701 61.3159 16.5446 61.4906C16.6319 61.578 16.7461 61.6216 16.8605 61.6216C16.9749 61.6216 17.0893 61.578 17.1765 61.4906L18.499 60.1681C18.6735 59.9936 18.6735 59.7107 18.499 59.536C18.3245 59.3613 18.0416 59.3615 17.8671 59.536Z" fill="#F2F5EA"/>
<path d="M23.2784 61.5157C23.0315 61.5157 22.8315 61.7157 22.8315 61.9626V63.833C22.8315 64.0799 23.0315 64.2799 23.2784 64.2799C23.5253 64.2799 23.7253 64.0799 23.7253 63.833V61.9626C23.7253 61.7157 23.5253 61.5157 23.2784 61.5157Z" fill="#F2F5EA"/>
<path d="M28.6896 59.536C28.5151 59.3615 28.2323 59.3615 28.0578 59.536C27.8833 59.7105 27.8833 59.9934 28.0578 60.1679L29.3803 61.4905C29.4677 61.5778 29.5818 61.6214 29.6962 61.6214C29.8106 61.6214 29.925 61.5778 30.0122 61.4905C30.1867 61.316 30.1867 61.0331 30.0122 60.8586L28.6896 59.536Z" fill="#F2F5EA"/>
</svg>
