<svg width="16" height="15" viewBox="0 0 16 15" fill="none" xmlns="http://www.w3.org/2000/svg">
<path d="M15.1779 9.02887C15.0632 8.93175 14.9017 8.9121 14.767 8.97842C12.3907 10.1496 9.5348 9.67699 7.66075 7.80294C5.78556 5.92794 5.31261 3.0715 6.48356 0.695208C6.55007 0.560294 6.53023 0.398927 6.43311 0.284042C6.33599 0.169158 6.1801 0.122864 6.03612 0.166134C4.86705 0.516457 3.78944 1.1606 2.91912 2.02923C2.2094 2.73894 1.65973 3.56676 1.2856 4.48923C0.924131 5.38016 0.740845 6.32153 0.740845 7.2869C0.740845 8.25227 0.924131 9.19364 1.28541 10.0846C1.65954 11.0072 2.20921 11.8349 2.91893 12.5446C3.62826 13.2539 4.4557 13.8032 5.37799 14.1773C6.26872 14.5384 7.20971 14.7215 8.17509 14.7215C9.14046 14.7215 10.0816 14.5384 10.9726 14.1773C11.895 13.8034 12.7229 13.2541 13.4329 12.5444C14.3016 11.6741 14.9457 10.5957 15.2958 9.42568C15.3389 9.2817 15.2928 9.126 15.1779 9.02887ZM12.8984 12.0102C10.2936 14.6134 6.05652 14.6134 3.45329 12.0102C2.19145 10.7484 1.49648 9.07101 1.49648 7.2869C1.49648 5.50279 2.19145 3.82543 3.45291 2.56378C4.03471 1.98312 4.71948 1.51414 5.46434 1.18252C5.3298 1.57687 5.23098 1.98331 5.16881 2.39826C5.06394 3.10004 5.06678 3.81126 5.17694 4.51229C5.40595 5.96875 6.07995 7.29143 7.12582 8.3373C8.17112 9.3826 9.49324 10.056 10.9495 10.2849C11.6503 10.395 12.3616 10.3977 13.0632 10.2928C13.4783 10.2308 13.8849 10.1318 14.2793 9.99708C13.9477 10.7427 13.4792 11.4284 12.8984 12.0102Z" fill="#F2F5EA"/>
</svg>
