<svg width="16" height="15" viewBox="0 0 16 15" fill="none" xmlns="http://www.w3.org/2000/svg">
<path d="M15.1779 9.22883C15.0632 9.1317 14.9017 9.11205 14.767 9.17837C12.3907 10.3495 9.5348 9.87694 7.66075 8.00289C5.78556 6.12789 5.31261 3.27146 6.48356 0.895159C6.55007 0.760245 6.53023 0.598878 6.43311 0.483993C6.33599 0.369109 6.1801 0.322815 6.03612 0.366085C4.86705 0.716408 3.78944 1.36056 2.91912 2.22918C2.2094 2.9389 1.65973 3.76671 1.2856 4.68918C0.924131 5.58011 0.740845 6.52148 0.740845 7.48685C0.740845 8.45222 0.924131 9.39359 1.28541 10.2845C1.65954 11.2072 2.20921 12.0348 2.91893 12.7445C3.62826 13.4539 4.4557 14.0031 5.37799 14.3773C6.26872 14.7384 7.20971 14.9215 8.17509 14.9215C9.14046 14.9215 10.0816 14.7384 10.9726 14.3773C11.895 14.0033 12.7229 13.454 13.4329 12.7443C14.3016 11.874 14.9457 10.7956 15.2958 9.62563C15.3389 9.48165 15.2928 9.32595 15.1779 9.22883ZM12.8984 12.2102C10.2936 14.8134 6.05652 14.8134 3.45329 12.2102C2.19145 10.9483 1.49648 9.27096 1.49648 7.48685C1.49648 5.70274 2.19145 4.02539 3.45291 2.76373C4.03471 2.18308 4.71948 1.71409 5.46434 1.38247C5.3298 1.77682 5.23098 2.18326 5.16881 2.59821C5.06394 3.29999 5.06678 4.01121 5.17694 4.71224C5.40595 6.1687 6.07995 7.49139 7.12582 8.53725C8.17112 9.58255 9.49324 10.256 10.9495 10.4848C11.6503 10.595 12.3616 10.5976 13.0632 10.4927C13.4783 10.4308 13.8849 10.3318 14.2793 10.197C13.9477 10.9426 13.4792 11.6284 12.8984 12.2102Z" fill="#C9CAD9"/>
</svg>
