<svg width="25" height="25" viewBox="0 0 25 25" fill="none" xmlns="http://www.w3.org/2000/svg">
<path d="M14.3201 10.3527C14.2028 10.2357 14.0129 10.2358 13.8958 10.353C13.7787 10.4703 13.7789 10.6602 13.8961 10.7773L16.3288 13.2063L13.8961 15.6352C13.7789 15.7523 13.7787 15.9422 13.8958 16.0595C14.0129 16.1767 14.2028 16.1769 14.3201 16.0598L16.7534 13.6302L19.1867 16.0598C19.3039 16.1769 19.4939 16.1767 19.6109 16.0595C19.728 15.9422 19.7279 15.7523 19.6106 15.6352L17.178 13.2063L19.6106 10.7773C19.7279 10.6602 19.728 10.4703 19.6109 10.353C19.4939 10.2358 19.3039 10.2357 19.1867 10.3527L16.7534 12.7823L14.3201 10.3527Z" fill="#F2F5EA"/>
<path fill-rule="evenodd" clip-rule="evenodd" d="M21.0596 3.59631C20.5478 3.0869 19.9915 2.62206 19.397 2.20814L19.3904 2.20348L19.3573 2.18063C17.3656 0.8055 14.9493 0 12.3446 0C5.52686 0 0 5.51847 0 12.3259C0 12.5116 0.00411298 12.6963 0.012253 12.88C0.140582 15.8586 1.34102 18.7992 3.61356 21.0683C6.00761 23.4588 9.17264 24.6877 12.357 24.6877C14.8013 24.6877 17.2572 23.9642 19.3884 22.4864C19.4375 22.4521 19.4783 22.4104 19.5103 22.3637C20.0187 22.0013 20.4984 21.6013 20.9453 21.1678C20.9964 21.1446 21.0443 21.1121 21.0865 21.07C25.9021 16.2617 25.9036 8.43799 21.0912 3.62781L21.0865 3.62317V3.62124C21.0778 3.61253 21.0688 3.60422 21.0596 3.59631ZM12.3446 23.6517C18.6115 23.6517 23.6892 18.5795 23.6892 12.3259C23.6892 6.07219 18.6115 1 12.3446 1C10.6742 1 9.0882 1.36038 7.66037 2.00745C7.97502 2.67901 8.16854 3.42785 8.2297 4.24277C8.2297 4.25435 8.47509 6.61776 9.2905 7.78307C9.63831 8.2789 10.0074 8.63004 10.3629 8.96767C10.8981 9.47701 11.4025 9.95741 11.6942 10.7947C11.9269 11.4649 11.3481 11.8751 11.034 12.0977L11.0295 12.1009C10.9793 12.1356 10.9155 12.18 10.8653 12.2205C10.9638 12.4366 11.0527 12.672 11.0856 12.7742C11.3288 13.553 10.6462 13.9774 10.2364 14.2321L10.2354 14.2328L10.1879 14.2627C10.1085 14.3127 10.0119 14.3734 9.94167 14.4276H10.0479C10.3165 14.4276 10.9503 14.4315 11.0662 15.0701C11.1822 15.7164 10.6643 16.0058 10.4421 16.1293C10.4209 16.1409 10.3977 16.1543 10.3745 16.1678C10.3765 16.326 10.3938 16.4862 10.4131 16.656C10.475 17.1962 10.5503 17.8695 9.96679 18.4232C9.27663 19.0777 8.0556 19.1868 6.97729 19.2831L6.96987 19.2837C6.52159 19.3242 6.10036 19.3628 5.84724 19.4342C5.39388 19.5627 5.07203 20.3388 4.92516 20.894C6.91404 22.6121 9.50745 23.6517 12.3446 23.6517ZM1 12.3259C1 15.3613 2.19632 18.1184 4.14427 20.1522C4.38071 19.5072 4.81666 18.7203 5.58058 18.5023C5.91358 18.406 6.34847 18.367 6.85079 18.3219L6.89748 18.3177C7.77223 18.2389 8.85628 18.1411 9.30017 17.719C9.51464 17.5165 9.51271 17.2946 9.45281 16.7602L9.452 16.7528C9.42708 16.527 9.39884 16.2711 9.4103 16.002C9.42383 15.6855 9.62285 15.5003 9.80641 15.3807C9.45668 15.3479 8.93883 15.1994 8.89439 14.5125C8.85781 13.9492 9.3527 13.6407 9.71754 13.4133L9.7214 13.4109C9.86631 13.3221 10.1368 13.1543 10.1658 13.0694C10.1349 12.9787 10.0228 12.6951 9.92428 12.4925C9.63334 11.9019 10.1954 11.5051 10.4668 11.3134L10.4692 11.3118C10.5619 11.2462 10.7088 11.142 10.7648 11.0764C10.5484 10.4802 10.1697 10.1195 9.69241 9.66608C9.31949 9.31301 8.89826 8.91172 8.49442 8.33485C7.54886 6.9823 7.2833 4.50937 7.26429 4.33233L7.26357 4.32573C7.21218 3.63195 7.05387 3.00371 6.79606 2.4447C3.33664 4.38503 1 8.0836 1 12.3259Z" fill="#F2F5EA"/>
</svg>
