<svg width="25" height="25" viewBox="0 0 25 25" fill="none" xmlns="http://www.w3.org/2000/svg">
<path d="M18.837 21.6928C14.5436 24.6717 8.81637 24.3244 4.90936 20.9519C5.04848 20.3944 5.37697 19.5667 5.8465 19.4336C6.09963 19.3622 6.52086 19.3236 6.96914 19.2831C8.04927 19.1866 9.27431 19.0786 9.96606 18.4226C10.5496 17.8689 10.4742 17.1956 10.4124 16.6553C10.3931 16.4856 10.3757 16.3254 10.3738 16.1672C10.3969 16.1537 10.4201 16.1402 10.4414 16.1286C10.6636 16.0052 11.1814 15.7158 11.0655 15.0695C10.9496 14.4308 10.3158 14.427 10.0472 14.427C10.0163 14.427 9.97765 14.427 9.94094 14.427C10.026 14.3614 10.1496 14.2861 10.2346 14.2321C10.6443 13.9775 11.3283 13.553 11.0848 12.7736C11.052 12.6713 10.9631 12.4359 10.8646 12.2199C10.9148 12.1793 10.9786 12.135 11.0288 12.1002C11.3418 11.8784 11.9273 11.4674 11.6935 10.7941C11.4017 9.95676 10.8974 9.47636 10.3622 8.96702C10.0066 8.62939 9.63757 8.27826 9.28977 7.78242C8.47436 6.61712 8.22897 4.25371 8.22897 4.24213C8.16713 3.41831 7.97004 2.66202 7.64929 1.98483C11.2143 0.368064 15.4672 0.657462 18.8389 2.99579C19.0573 3.14821 19.3587 3.09419 19.5114 2.87425C19.664 2.65623 19.6099 2.35526 19.3896 2.20284C14.4798 -1.2024 7.84445 -0.60624 3.61282 3.62089C-1.20427 8.43068 -1.20427 16.2579 3.61282 21.0677C6.00688 23.4581 9.1719 24.6871 12.3562 24.6871C14.8005 24.6871 17.2564 23.9636 19.3877 22.4857C19.606 22.3333 19.6601 22.0324 19.5094 21.8143C19.3587 21.5963 19.0554 21.5423 18.837 21.6928ZM4.29491 4.30194C5.05042 3.54758 5.89094 2.92055 6.78364 2.41893C7.04836 2.98422 7.21067 3.62089 7.26284 4.32509C7.27443 4.4312 7.53336 6.96054 8.49368 8.33421C8.89752 8.91107 9.31875 9.31237 9.69168 9.66544C10.1689 10.1188 10.5477 10.4796 10.7641 11.0758C10.708 11.1414 10.5612 11.2455 10.4684 11.3111C10.1979 11.5021 9.63178 11.8996 9.92355 12.4919C10.0221 12.6945 10.1342 12.9781 10.1651 13.0688C10.1361 13.1536 9.86558 13.3215 9.72066 13.4102C9.35547 13.6379 8.85694 13.9466 8.89366 14.5119C8.9381 15.1987 9.45594 15.3473 9.80568 15.3801C9.62212 15.4997 9.4231 15.6849 9.40957 16.0013C9.39798 16.2733 9.42696 16.5319 9.45208 16.7595C9.51198 17.294 9.51391 17.5158 9.29943 17.7184C8.85308 18.1429 7.75943 18.2393 6.88219 18.3184C6.36628 18.3647 5.91993 18.4033 5.57985 18.5017C4.79536 18.7255 4.35674 19.5493 4.12487 20.2034C-0.141537 15.7601 -0.0874343 8.67763 4.29491 4.30194Z" fill="#F2F5EA"/>
<path d="M21.0858 3.62059C20.8964 3.43152 20.5911 3.43152 20.4018 3.62059C20.2124 3.80967 20.2124 4.1145 20.4018 4.30357C24.8421 8.73714 24.8421 15.9528 20.4018 20.3863C20.2124 20.5754 20.2124 20.8803 20.4018 21.0693C20.4965 21.1639 20.6201 21.2102 20.7438 21.2102C20.8675 21.2102 20.9911 21.1639 21.0858 21.0693C25.9029 16.2595 25.9029 8.43231 21.0858 3.62252V3.62059Z" fill="#F2F5EA"/>
<path d="M17.9421 18.5458C18.0368 18.6403 18.1604 18.6866 18.2841 18.6866C18.4077 18.6866 18.5314 18.6403 18.6261 18.5458C22.052 15.1251 22.052 9.56096 18.6261 6.14028C18.4367 5.95121 18.1314 5.95121 17.9421 6.14028C17.7527 6.32935 17.7527 6.63418 17.9421 6.82326C20.9912 9.86772 20.9912 14.8203 17.9421 17.8647C17.7527 18.0538 17.7527 18.3586 17.9421 18.5477V18.5458Z" fill="#F2F5EA"/>
<path d="M15.4958 16.1034C15.5905 16.1979 15.7141 16.2442 15.8378 16.2442C15.9615 16.2442 16.0851 16.1979 16.1798 16.1034C17.1865 15.1001 17.7391 13.7631 17.7391 12.3431C17.7391 10.9232 17.1846 9.58808 16.1798 8.58291C15.9904 8.39383 15.6851 8.39383 15.4958 8.58291C15.3064 8.77198 15.3064 9.07681 15.4958 9.26588C16.3189 10.0878 16.773 11.1817 16.773 12.3431C16.773 13.5046 16.3189 14.5985 15.4958 15.4204C15.3064 15.6095 15.3064 15.9143 15.4958 16.1034Z" fill="#F2F5EA"/>
</svg>
