<svg width="20" height="20" viewBox="0 0 20 20" fill="none" xmlns="http://www.w3.org/2000/svg">
<path d="M13.4515 6.38361C11.7018 4.63385 8.85492 4.63385 7.10516 6.38361C5.35541 8.13336 5.35541 10.9802 7.10516 12.73C7.97993 13.6047 9.12908 14.0422 10.2785 14.0422C11.4278 14.0422 12.5768 13.6047 13.4517 12.73C15.2015 10.9802 15.2015 8.13336 13.4517 6.38361H13.4515ZM12.8196 12.0981C11.4184 13.4993 9.13847 13.4993 7.73728 12.0981C6.33609 10.6969 6.33609 8.41691 7.73728 7.01572C9.13847 5.61453 11.4184 5.61453 12.8196 7.01572C14.2208 8.41691 14.2208 10.6969 12.8196 12.0981Z" fill="#C9CAD9"/>
<path d="M19.3545 9.10999H17.4844C17.2375 9.10999 17.0375 9.30996 17.0375 9.55686C17.0375 9.80377 17.2375 10.0037 17.4844 10.0037H19.3545C19.6014 10.0037 19.8014 9.80377 19.8014 9.55686C19.8014 9.30996 19.6014 9.10999 19.3545 9.10999Z" fill="#C9CAD9"/>
<path d="M15.3735 4.9085C15.4879 4.9085 15.6023 4.86493 15.6894 4.77757L17.0119 3.45503C17.1864 3.28052 17.1864 2.99765 17.0119 2.82314C16.8374 2.64863 16.5546 2.64863 16.3801 2.82314L15.0575 4.14568C14.883 4.32019 14.883 4.60306 15.0575 4.77757C15.1449 4.86493 15.2591 4.9085 15.3735 4.9085Z" fill="#C9CAD9"/>
<path d="M10.2784 0.0339355C10.0315 0.0339355 9.83154 0.233914 9.83154 0.480815V2.35123C9.83154 2.59813 10.0315 2.79811 10.2784 2.79811C10.5253 2.79811 10.7253 2.59813 10.7253 2.35123V0.480815C10.7253 0.233914 10.5253 0.0339355 10.2784 0.0339355Z" fill="#C9CAD9"/>
<path d="M4.17646 2.82314C4.00196 2.64863 3.71908 2.64863 3.54458 2.82314C3.37007 2.99765 3.37007 3.28052 3.54458 3.45525L4.86711 4.77779C4.95448 4.86516 5.06866 4.90873 5.18306 4.90873C5.29746 4.90873 5.41186 4.86516 5.499 4.77779C5.67351 4.60328 5.67351 4.32041 5.499 4.14568L4.17646 2.82314Z" fill="#C9CAD9"/>
<path d="M3.07244 9.10999H1.20225C0.95535 9.10999 0.755371 9.30996 0.755371 9.55686C0.755371 9.80377 0.95535 10.0037 1.20225 10.0037H3.07244C3.31934 10.0037 3.51932 9.80377 3.51932 9.55686C3.51932 9.30996 3.31934 9.10999 3.07244 9.10999Z" fill="#C9CAD9"/>
<path d="M4.86711 14.336L3.54458 15.6586C3.37007 15.8331 3.37007 16.116 3.54458 16.2907C3.63194 16.3781 3.74612 16.4216 3.86052 16.4216C3.97492 16.4216 4.08932 16.3781 4.17646 16.2907L5.499 14.9682C5.67351 14.7936 5.67351 14.5108 5.499 14.336C5.3245 14.1613 5.04162 14.1615 4.86711 14.336Z" fill="#C9CAD9"/>
<path d="M10.2784 16.3158C10.0315 16.3158 9.83154 16.5158 9.83154 16.7627V18.6331C9.83154 18.88 10.0315 19.08 10.2784 19.08C10.5253 19.08 10.7253 18.88 10.7253 18.6331V16.7627C10.7253 16.5158 10.5253 16.3158 10.2784 16.3158Z" fill="#C9CAD9"/>
<path d="M15.6896 14.336C15.5151 14.1615 15.2323 14.1615 15.0578 14.336C14.8833 14.5105 14.8833 14.7933 15.0578 14.9678L16.3803 16.2904C16.4677 16.3777 16.5818 16.4213 16.6962 16.4213C16.8106 16.4213 16.925 16.3777 17.0122 16.2904C17.1867 16.1159 17.1867 15.833 17.0122 15.6585L15.6896 14.336Z" fill="#C9CAD9"/>
</svg>
