<svg width="20" height="20" viewBox="0 0 20 20" fill="none" xmlns="http://www.w3.org/2000/svg">
<path d="M13.4515 6.58356C11.7018 4.8338 8.85492 4.8338 7.10516 6.58356C5.35541 8.33331 5.35541 11.1802 7.10516 12.9299C7.97993 13.8047 9.12908 14.2422 10.2785 14.2422C11.4278 14.2422 12.5768 13.8047 13.4517 12.9299C15.2015 11.1802 15.2015 8.33331 13.4517 6.58356H13.4515ZM12.8196 12.298C11.4184 13.6992 9.13847 13.6992 7.73728 12.298C6.33609 10.8968 6.33609 8.61686 7.73728 7.21567C9.13847 5.81448 11.4184 5.81448 12.8196 7.21567C14.2208 8.61686 14.2208 10.8968 12.8196 12.298Z" fill="#F2F5EA"/>
<path d="M19.3545 9.30994H17.4844C17.2375 9.30994 17.0375 9.50992 17.0375 9.75682C17.0375 10.0037 17.2375 10.2037 17.4844 10.2037H19.3545C19.6014 10.2037 19.8014 10.0037 19.8014 9.75682C19.8014 9.50992 19.6014 9.30994 19.3545 9.30994Z" fill="#F2F5EA"/>
<path d="M15.3735 5.10845C15.4879 5.10845 15.6023 5.06488 15.6894 4.97752L17.0119 3.65498C17.1864 3.48047 17.1864 3.1976 17.0119 3.02309C16.8374 2.84859 16.5546 2.84859 16.3801 3.02309L15.0575 4.34563C14.883 4.52014 14.883 4.80301 15.0575 4.97752C15.1449 5.06488 15.2591 5.10845 15.3735 5.10845Z" fill="#F2F5EA"/>
<path d="M10.2784 0.233887C10.0315 0.233887 9.83154 0.433865 9.83154 0.680766V2.55118C9.83154 2.79808 10.0315 2.99806 10.2784 2.99806C10.5253 2.99806 10.7253 2.79808 10.7253 2.55118V0.680766C10.7253 0.433865 10.5253 0.233887 10.2784 0.233887Z" fill="#F2F5EA"/>
<path d="M4.17646 3.02309C4.00196 2.84859 3.71908 2.84859 3.54458 3.02309C3.37007 3.1976 3.37007 3.48047 3.54458 3.6552L4.86711 4.97774C4.95448 5.06511 5.06866 5.10868 5.18306 5.10868C5.29746 5.10868 5.41186 5.06511 5.499 4.97774C5.67351 4.80324 5.67351 4.52036 5.499 4.34563L4.17646 3.02309Z" fill="#F2F5EA"/>
<path d="M3.07244 9.30994H1.20225C0.95535 9.30994 0.755371 9.50992 0.755371 9.75682C0.755371 10.0037 0.95535 10.2037 1.20225 10.2037H3.07244C3.31934 10.2037 3.51932 10.0037 3.51932 9.75682C3.51932 9.50992 3.31934 9.30994 3.07244 9.30994Z" fill="#F2F5EA"/>
<path d="M4.86711 14.536L3.54458 15.8585C3.37007 16.033 3.37007 16.3159 3.54458 16.4906C3.63194 16.578 3.74612 16.6216 3.86052 16.6216C3.97492 16.6216 4.08932 16.578 4.17646 16.4906L5.499 15.1681C5.67351 14.9936 5.67351 14.7107 5.499 14.536C5.3245 14.3613 5.04162 14.3615 4.86711 14.536Z" fill="#F2F5EA"/>
<path d="M10.2784 16.5157C10.0315 16.5157 9.83154 16.7157 9.83154 16.9626V18.833C9.83154 19.0799 10.0315 19.2799 10.2784 19.2799C10.5253 19.2799 10.7253 19.0799 10.7253 18.833V16.9626C10.7253 16.7157 10.5253 16.5157 10.2784 16.5157Z" fill="#F2F5EA"/>
<path d="M15.6896 14.536C15.5151 14.3615 15.2323 14.3615 15.0578 14.536C14.8833 14.7105 14.8833 14.9934 15.0578 15.1679L16.3803 16.4905C16.4677 16.5778 16.5818 16.6214 16.6962 16.6214C16.8106 16.6214 16.925 16.5778 17.0122 16.4905C17.1867 16.316 17.1867 16.0331 17.0122 15.8586L15.6896 14.536Z" fill="#F2F5EA"/>
</svg>
