<svg width="40" height="40" viewBox="0 0 40 40" fill="none" xmlns="http://www.w3.org/2000/svg">
<path d="M20 40C31.0457 40 40 31.0457 40 20C40 8.9543 31.0457 0 20 0C8.9543 0 0 8.9543 0 20C0 31.0457 8.9543 40 20 40Z" fill="#F2F5EA"/>
<path d="M33.5545 20.1625C33.5545 21.402 32.5459 22.4367 31.3063 22.4367C30.2823 22.4367 29.4165 21.7566 29.1463 20.8246H22.2471C22.1203 21.4698 21.7784 22.1686 21.2903 22.6681L26.4101 29.8182C26.6454 29.7343 26.8985 29.6813 27.1623 29.6813C28.4022 29.6813 29.4107 30.6866 29.4107 31.9263C29.4107 33.1661 28.4022 34.1726 27.1623 34.1726C25.9227 34.1726 24.9144 33.1636 24.9144 31.9238C24.9144 31.3978 25.0964 30.913 25.4005 30.5296L20.2811 23.3789C19.8174 23.6012 19.2986 23.7258 18.7512 23.7258C17.7336 23.7258 16.8151 23.2946 16.1671 22.607L11.6718 25.5476C11.7754 25.8331 11.8321 26.1409 11.8321 26.462C11.8321 27.9469 10.624 29.1553 9.1388 29.1553C7.65385 29.1553 6.44556 27.9469 6.44556 26.462C6.44556 24.9767 7.65392 23.7687 9.1388 23.7687C9.85546 23.7687 10.5071 24.0506 10.99 24.5085L15.485 21.5681C15.3017 21.14 15.1997 20.6688 15.1997 20.1744C15.1997 19.0826 15.6952 18.1049 16.4724 17.453L14.5143 14.0414C14.2715 14.1134 14.0148 14.1526 13.7489 14.1526C12.2637 14.1526 11.0557 12.9445 11.0557 11.4595C11.0557 9.97443 12.2638 8.76615 13.7489 8.76615C15.2339 8.76615 16.4422 9.9745 16.4422 11.4595C16.4422 12.2323 16.1144 12.9299 15.5911 13.4212L17.5491 16.8325C17.9248 16.6971 18.3294 16.6227 18.7511 16.6227C19.4393 16.6227 20.0821 16.8202 20.6269 17.1607L27.0207 10.0542C26.7187 9.61918 26.5411 9.09151 26.5411 8.52275C26.5411 7.03787 27.7492 5.82916 29.2343 5.82916C30.7192 5.82916 31.9277 7.03694 31.9277 8.52182C31.9277 10.0071 30.7192 11.2138 29.2343 11.2138C28.7671 11.2138 28.3274 11.0911 27.9439 10.8809L21.5499 17.9831C21.8996 18.4302 22.1439 18.9608 22.247 19.5343H29.1462C29.4164 18.6023 30.2822 17.9167 31.3061 17.9167C32.5458 17.9164 33.5545 18.9226 33.5545 20.1625Z" fill="#0BAA81"/>
</svg>
