<svg width="40" height="40" viewBox="0 0 40 40" fill="none" xmlns="http://www.w3.org/2000/svg">
<path d="M40 20C40 31.0457 31.0457 40 20 40C8.9543 40 0 31.0457 0 20C0 8.9543 8.9543 0 20 0C31.0457 0 40 8.9543 40 20Z" fill="#F2F5EA"/>
<path fill-rule="evenodd" clip-rule="evenodd" d="M13.33 27.56C11.55 24.93 11.22 21.67 12.02 18.63C9.13003 22.27 8.13003 27.05 9.83003 31.05C9.99003 31.42 10.16 31.77 10.35 32.1H20.93C20.49 30.22 20.55 28.24 21.18 26.41C21.4 28.38 21.96 30.3 22.81 32.1H28.21C27.14 29.24 26.84 26.16 27.2 23.11C25.35 24.39 22.8 24.86 20.26 24.18C17.16 23.35 14.92 21.04 14.3 18.41C13.25 21.32 12.86 24.45 13.33 27.57V27.56ZM21.23 20.53C22.2 20.79 22.87 21.42 22.74 21.94C22.6 22.46 21.7 22.67 20.73 22.41C19.76 22.15 19.09 21.52 19.22 21C19.35 20.48 20.26 20.27 21.23 20.53ZM24.3 16.02C25.08 15.71 26.05 16.3 26.48 17.35C26.9 18.4 26.62 19.51 25.84 19.82C25.06 20.13 24.09 19.54 23.66 18.49C23.24 17.44 23.52 16.33 24.3 16.02ZM20.83 15.09C21.35 15.75 21.04 16.85 20.15 17.55C19.26 18.25 18.12 18.28 17.6 17.61C17.08 16.95 17.39 15.85 18.28 15.15C19.17 14.45 20.32 14.42 20.83 15.09ZM29.73 11C28.66 10.15 27.03 10.42 26.05 11.59C27.6 12.48 28.78 13.79 29.43 15.28C29.61 15.14 29.78 14.97 29.93 14.78C30.9 13.56 30.82 11.86 29.73 11ZM18.64 8.02003C19.99 7.82003 21.27 8.87003 21.53 10.38C19.74 10.38 18.06 10.92 16.76 11.88C16.68 11.67 16.61 11.44 16.58 11.2C16.35 9.65003 17.27 8.23003 18.64 8.03003V8.02003Z" fill="#0BAA81"/>
</svg>
