<svg width="40" height="40" viewBox="0 0 40 40" fill="none" xmlns="http://www.w3.org/2000/svg">
<path d="M20 40C31.0457 40 40 31.0457 40 20C40 8.95431 31.0457 0 20 0C8.95431 0 0 8.95431 0 20C0 31.0457 8.95431 40 20 40Z" fill="#F2F5EA"/>
<path d="M30.6636 21.3286C30.2156 20.8905 29.4861 20.8905 29.038 21.3286L24.2525 26.0086C23.6019 26.6464 22.7351 26.9973 21.8133 26.9973H17.5856C17.3745 26.9973 17.2028 26.8294 17.2028 26.6229C17.2028 26.4165 17.3745 26.2486 17.5856 26.2486H21.8013C22.6476 26.2486 23.3342 25.5755 23.3342 24.7496C23.3342 23.9237 22.6458 23.2506 21.8013 23.2506H15.5275C14.5406 23.2506 13.5845 23.5343 12.7623 24.0698L8.17067 27.0627C8.00245 27.1718 7.95096 27.3901 8.05052 27.5613L11.1179 32.8103C11.1728 32.9043 11.2655 32.9698 11.3736 32.9916C11.3994 32.9966 11.4251 33 11.4509 33C11.5333 33 11.614 32.9748 11.6809 32.9261L14.0359 31.1988C14.4427 30.9001 14.9268 30.7221 15.4349 30.6818L22.7145 30.1212C23.8302 30.0356 24.8481 29.5303 25.5793 28.7011L30.6636 22.9233C30.8798 22.7101 31 22.4281 31 22.1276C31 21.8271 30.8798 21.5451 30.6636 21.3319V21.3286Z" fill="#0BAA81"/>
<path d="M17.3533 16.2728C17.3533 16.2728 17.3573 16.2707 17.3573 16.2686C18.3648 17.5637 19.303 19.369 19.48 19.7195C19.5146 20.2065 19.5451 20.5214 19.5512 20.5823C19.5757 20.8237 19.7731 21 20.0031 21C20.0193 21 20.0356 21 20.0519 20.9979C20.3022 20.9685 20.4813 20.7397 20.4549 20.4815C20.4549 20.4668 20.4264 20.1939 20.3938 19.7447C20.6238 19.4529 21.218 18.7245 22.0179 17.8786C22.024 17.8723 22.024 17.8639 22.0301 17.8597C23.1779 16.6485 24.8895 15.0679 26.5298 14.4045C26.7639 14.3101 27.0264 14.4276 27.118 14.6711C27.2096 14.9125 27.0936 15.1833 26.8595 15.2778C25.4471 15.8466 23.9391 17.2111 22.8604 18.3278C23.4954 18.8421 24.2057 19.1255 24.9526 19.1255H25.0075C26.0047 19.1087 27.0142 18.6007 27.932 17.654C29.8125 15.7144 29.9937 10.9053 29.9998 10.7017C30.0038 10.5715 29.957 10.4456 29.8675 10.3532C29.7779 10.2609 29.6517 10.2147 29.5296 10.2168C29.3322 10.2231 24.6697 10.4099 22.7892 12.3495C21.1896 13.9994 21.1102 15.6241 21.6943 16.8752C21.1488 17.4315 20.6787 17.9584 20.3205 18.3782C20.2636 16.764 20.2778 14.4843 20.6502 12.5132C20.6543 12.5132 20.6584 12.5132 20.6624 12.5132C20.6624 12.4985 20.6584 12.4838 20.6624 12.4691C20.9026 11.2055 21.2628 10.2231 21.7329 9.55346C21.8795 9.34565 22.1624 9.29527 22.3679 9.44851C22.5714 9.59964 22.6162 9.89352 22.4697 10.1034C22.0993 10.6324 21.8082 11.4343 21.5945 12.4733C22.2193 12.2844 22.779 11.7911 23.2145 11.004C24.1059 9.38973 23.3122 6.46355 23.2776 6.3397C23.2084 6.0941 22.9601 5.94926 22.7241 6.01643C22.604 6.05002 19.7609 6.83929 18.8695 8.45352C18.4278 9.25749 18.2976 10.0069 18.4828 10.6849C18.6497 11.2915 19.0669 11.8058 19.6937 12.1732C19.7242 12.1921 19.7568 12.1984 19.7873 12.2152C19.4291 14.0246 19.362 16.0482 19.3884 17.654C19.016 17.0347 18.552 16.3189 17.9801 15.5633C18.8776 14.2639 19.0648 12.3852 17.2108 10.475C15.3303 8.53749 10.6678 8.35066 10.4704 8.34227C10.3381 8.34227 10.2221 8.38845 10.1325 8.47871C10.043 8.57107 9.99617 8.69702 10.0002 8.82716C10.0064 9.03078 10.1875 13.8399 12.068 15.7795C12.9838 16.7241 13.9953 17.2321 14.9925 17.251H15.0474C15.5908 17.251 16.1118 17.0893 16.6023 16.8101C15.428 15.24 14.2049 14.0561 12.9573 13.313C12.7396 13.1829 12.6643 12.8974 12.7904 12.6728C12.9166 12.4482 13.1934 12.3726 13.4112 12.5006C14.7707 13.3109 16.0935 14.5872 17.3492 16.2728" fill="#0BAA81"/>
</svg>
