<svg width="40" height="40" viewBox="0 0 40 40" fill="none" xmlns="http://www.w3.org/2000/svg">
<path fill-rule="evenodd" clip-rule="evenodd" d="M33.2473 27.2011C33.1403 26.6113 33.2125 26.0029 33.4545 25.4545C33.685 24.9168 34.0677 24.4582 34.5555 24.1351C35.0433 23.8121 35.6149 23.6387 36.2 23.6364H36.3636C37.3281 23.6364 38.253 23.2532 38.9349 22.5713C39.6169 21.8893 40 20.9644 40 20C40 19.0356 39.6169 18.1107 38.9349 17.4287C38.253 16.7468 37.3281 16.3636 36.3636 16.3636H36.0545C35.4695 16.3613 34.8979 16.1879 34.4101 15.8649C33.9223 15.5419 33.5396 15.0832 33.3091 14.5455V14.4C33.0671 13.8516 32.9949 13.2433 33.1018 12.6535C33.2088 12.0637 33.4899 11.5194 33.9091 11.0909L34.0182 10.9818C34.3563 10.6441 34.6245 10.243 34.8075 9.8016C34.9905 9.36015 35.0847 8.88697 35.0847 8.40909C35.0847 7.93122 34.9905 7.45803 34.8075 7.01658C34.6245 6.57513 34.3563 6.17408 34.0182 5.83636C33.6805 5.49827 33.2794 5.23005 32.838 5.04706C32.3965 4.86406 31.9233 4.76987 31.4455 4.76987C30.9676 4.76987 30.4944 4.86406 30.0529 5.04706C29.6115 5.23005 29.2104 5.49827 28.8727 5.83636L28.7636 5.94545C28.3351 6.36461 27.7909 6.64579 27.2011 6.75274C26.6113 6.85968 26.0029 6.78748 25.4545 6.54545C24.9168 6.31498 24.4582 5.93228 24.1351 5.44448C23.8121 4.95668 23.6387 4.38507 23.6364 3.8V3.63636C23.6364 2.67194 23.2532 1.74702 22.5713 1.06507C21.8893 0.383116 20.9644 0 20 0C19.0356 0 18.1107 0.383116 17.4287 1.06507C16.7468 1.74702 16.3636 2.67194 16.3636 3.63636V3.94545C16.3613 4.53052 16.1879 5.10214 15.8649 5.58994C15.5419 6.07774 15.0832 6.46043 14.5455 6.69091H14.4C13.8516 6.93294 13.2433 7.00513 12.6535 6.89819C12.0637 6.79125 11.5194 6.51007 11.0909 6.09091L10.9818 5.98182C10.6441 5.64372 10.243 5.37551 9.8016 5.19251C9.36015 5.00951 8.88697 4.91532 8.40909 4.91532C7.93122 4.91532 7.45803 5.00951 7.01658 5.19251C6.57513 5.37551 6.17408 5.64372 5.83636 5.98182C5.49827 6.31954 5.23005 6.72059 5.04706 7.16204C4.86406 7.60348 4.76987 8.07667 4.76987 8.55455C4.76987 9.03242 4.86406 9.50561 5.04706 9.94706C5.23005 10.3885 5.49827 10.7896 5.83636 11.1273L5.94545 11.2364C6.36461 11.6649 6.64579 12.2091 6.75274 12.7989C6.85968 13.3887 6.78748 13.9971 6.54545 14.5455C6.33767 15.1104 5.96472 15.5998 5.47509 15.95C4.98546 16.3002 4.40181 16.495 3.8 16.5091H3.63636C2.67194 16.5091 1.74702 16.8922 1.06507 17.5742C0.383116 18.2561 0 19.181 0 20.1455C0 21.1099 0.383116 22.0348 1.06507 22.7168C1.74702 23.3987 2.67194 23.7818 3.63636 23.7818H3.94545C4.53052 23.7842 5.10214 23.9575 5.58994 24.2806C6.07774 24.6036 6.46043 25.0622 6.69091 25.6C6.93294 26.1484 7.00513 26.7567 6.89819 27.3465C6.79125 27.9363 6.51007 28.4806 6.09091 28.9091L5.98182 29.0182C5.64372 29.3559 5.37551 29.757 5.19251 30.1984C5.00951 30.6398 4.91532 31.113 4.91532 31.5909C4.91532 32.0688 5.00951 32.542 5.19251 32.9834C5.37551 33.4249 5.64372 33.8259 5.98182 34.1636C6.31954 34.5017 6.72059 34.7699 7.16204 34.9529C7.60348 35.1359 8.07667 35.2301 8.55455 35.2301C9.03242 35.2301 9.50561 35.1359 9.94706 34.9529C10.3885 34.7699 10.7896 34.5017 11.1273 34.1636L11.2364 34.0545C11.6649 33.6354 12.2091 33.3542 12.7989 33.2473C13.3887 33.1403 13.9971 33.2125 14.5455 33.4545C15.1104 33.6623 15.5998 34.0353 15.95 34.5249C16.3002 35.0145 16.495 35.5982 16.5091 36.2V36.3636C16.5091 37.3281 16.8922 38.253 17.5742 38.9349C18.2561 39.6169 19.181 40 20.1455 40C21.1099 40 22.0348 39.6169 22.7168 38.9349C23.3987 38.253 23.7818 37.3281 23.7818 36.3636V36.0545C23.7842 35.4695 23.9575 34.8979 24.2806 34.4101C24.6036 33.9223 25.0622 33.5396 25.6 33.3091C26.1484 33.0671 26.7567 32.9949 27.3465 33.1018C27.9363 33.2088 28.4806 33.4899 28.9091 33.9091L29.0182 34.0182C29.3559 34.3563 29.757 34.6245 30.1984 34.8075C30.6398 34.9905 31.113 35.0847 31.5909 35.0847C32.0688 35.0847 32.542 34.9905 32.9834 34.8075C33.4249 34.6245 33.8259 34.3563 34.1636 34.0182C34.5017 33.6805 34.7699 33.2794 34.9529 32.838C35.1359 32.3965 35.2301 31.9233 35.2301 31.4455C35.2301 30.9676 35.1359 30.4944 34.9529 30.0529C34.7699 29.6115 34.5017 29.2104 34.1636 28.8727L34.0545 28.7636C33.6354 28.3351 33.3542 27.7909 33.2473 27.2011ZM25.4545 20C25.4545 23.0125 23.0124 25.4546 20 25.4546C16.9875 25.4546 14.5454 23.0125 14.5454 20C14.5454 16.9876 16.9875 14.5455 20 14.5455C23.0124 14.5455 25.4545 16.9876 25.4545 20Z" fill="#F2F5EA"/>
</svg>
