<svg width="40" height="40" viewBox="0 0 40 40" fill="none" xmlns="http://www.w3.org/2000/svg">
<g clip-path="url(#clip0_1278_2275)">
<path d="M20 40C31.0457 40 40 31.0457 40 20C40 8.95431 31.0457 0 20 0C8.95431 0 0 8.95431 0 20C0 31.0457 8.95431 40 20 40Z" fill="#F2F5EA"/>
</g>
<g clip-path="url(#clip1_1278_2275)">
<path fill-rule="evenodd" clip-rule="evenodd" d="M20.9458 28.5312L13.1542 33L16.1853 25.4567L20.109 23.2038C12.9404 24.321 5.94838 18.8459 5 11.5334L19.3652 17.2209L14.2049 13.3984C14.0096 11.2656 14.3164 9.06818 15.1811 7L20.7599 14.0263L21.0109 13.3892C21.9965 10.924 25.2879 10.6932 27.2126 12.2812C27.9564 12.8906 28.7281 13.2692 29.6858 13.4908L33.9814 14.4602H29.4998C26.5803 14.4602 26.2456 16.5007 26.2456 18.8182C26.2456 22.9545 24.6185 26.4169 20.9272 28.5312H20.9458ZM25.2042 12.706C24.7858 12.706 24.4418 13.0476 24.4418 13.4631C24.4418 13.8786 24.7858 14.2202 25.2042 14.2202C25.6226 14.2202 25.9667 13.8786 25.9667 13.4631C25.9667 13.0476 25.6226 12.706 25.2042 12.706Z" fill="#0BAA81"/>
<path d="M25.2041 14.2386C25.6355 14.2386 25.9851 13.8914 25.9851 13.4631C25.9851 13.0347 25.6355 12.6875 25.2041 12.6875C24.7728 12.6875 24.4231 13.0347 24.4231 13.4631C24.4231 13.8914 24.7728 14.2386 25.2041 14.2386Z" fill="#F2F5EA"/>
</g>
<defs>
<clipPath id="clip0_1278_2275">
<rect width="40" height="40" fill="white"/>
</clipPath>
<clipPath id="clip1_1278_2275">
<rect width="29" height="26" fill="white" transform="translate(5 7)"/>
</clipPath>
</defs>
</svg>
